<svg width="61" height="22" viewBox="0 0 61 22" fill="none" xmlns="http://www.w3.org/2000/svg">
<path d="M0 6C0 2.68629 2.68629 0 6 0H55C58.3137 0 61 2.68629 61 6V16C61 19.3137 58.3137 22 55 22H6C2.68629 22 0 19.3137 0 16V6Z" fill="#24AFB5"/>
<path d="M7.32413 16H9.03684V12.8054H10.8465C13.0301 12.8054 14.2027 11.4943 14.2027 9.67543C14.2027 7.87038 13.0439 6.54545 10.8696 6.54545H7.32413V16ZM9.03684 11.3974V7.97656H10.6064C11.8898 7.97656 12.4577 8.66903 12.4577 9.67543C12.4577 10.6818 11.8898 11.3974 10.6157 11.3974H9.03684ZM18.608 16.1385C20.6854 16.1385 22.0057 14.6751 22.0057 12.4822C22.0057 10.2848 20.6854 8.81676 18.608 8.81676C16.5305 8.81676 15.2102 10.2848 15.2102 12.4822C15.2102 14.6751 16.5305 16.1385 18.608 16.1385ZM18.6172 14.7997C17.4677 14.7997 16.9045 13.7749 16.9045 12.4776C16.9045 11.1804 17.4677 10.1417 18.6172 10.1417C19.7482 10.1417 20.3114 11.1804 20.3114 12.4776C20.3114 13.7749 19.7482 14.7997 18.6172 14.7997ZM23.4241 18.6591H25.0953V14.8828H25.1645C25.4276 15.3999 25.977 16.1246 27.1958 16.1246C28.8669 16.1246 30.118 14.7997 30.118 12.4638C30.118 10.1001 28.83 8.81676 27.1911 8.81676C25.9401 8.81676 25.4184 9.56925 25.1645 10.0817H25.0676V8.90909H23.4241V18.6591ZM25.0629 12.4545C25.0629 11.0788 25.6539 10.1879 26.7295 10.1879C27.8421 10.1879 28.4145 11.1342 28.4145 12.4545C28.4145 13.7841 27.8328 14.7536 26.7295 14.7536C25.6631 14.7536 25.0629 13.8303 25.0629 12.4545ZM36.0686 13.0178C36.0686 14.098 35.2977 14.6335 34.559 14.6335C33.7558 14.6335 33.2203 14.0657 33.2203 13.1655V8.90909H31.5491V13.424C31.5491 15.1275 32.5186 16.0923 33.9127 16.0923C34.9745 16.0923 35.7224 15.5337 36.0455 14.7397H36.1194V16H37.7398V8.90909H36.0686V13.0178ZM41.1294 6.54545H39.4583V16H41.1294V6.54545ZM44.8884 16.1431C46.001 16.1431 46.6657 15.6214 46.9704 15.0259H47.0258V16H48.6324V11.2543C48.6324 9.37997 47.1043 8.81676 45.7517 8.81676C44.2606 8.81676 43.1157 9.48153 42.7464 10.7741L44.3067 10.9957C44.4729 10.511 44.9438 10.0955 45.7609 10.0955C46.5365 10.0955 46.9612 10.4925 46.9612 11.1896V11.2173C46.9612 11.6974 46.458 11.7205 45.2069 11.8544C43.8312 12.0021 42.5155 12.413 42.5155 14.0103C42.5155 15.4045 43.5358 16.1431 44.8884 16.1431ZM45.3224 14.9151C44.6253 14.9151 44.1267 14.5966 44.1267 13.9826C44.1267 13.3409 44.6853 13.0732 45.4331 12.967C45.8717 12.907 46.7488 12.7962 46.9658 12.6207V13.4563C46.9658 14.2457 46.3287 14.9151 45.3224 14.9151ZM50.3128 16H51.9839V11.8313C51.9839 10.9311 52.6626 10.294 53.5812 10.294C53.8628 10.294 54.2137 10.3448 54.3568 10.391V8.85369C54.2045 8.82599 53.9413 8.80753 53.7567 8.80753C52.9442 8.80753 52.2655 9.26918 52.007 10.0909H51.9331V8.90909H50.3128V16Z" fill="white"/>
</svg>
